<?xml version="1.0" encoding="UTF-8" standalone="no"?>
<!DOCTYPE svg PUBLIC "-//W3C//DTD SVG 1.1//EN" "http://www.w3.org/Graphics/SVG/1.1/DTD/svg11.dtd">
<svg width="100%" height="100%" viewBox="0 0 5035 2048" version="1.1" xmlns="http://www.w3.org/2000/svg" xmlns:xlink="http://www.w3.org/1999/xlink" xml:space="preserve" xmlns:serif="http://www.serif.com/" style="fill-rule:evenodd;clip-rule:evenodd;stroke-linecap:round;stroke-linejoin:round;stroke-miterlimit:10;">
    <path id="Forma-4-copiar-3" serif:id="Forma 4 copiar 3" d="M1540.162,1384.508C1579.618,1435.926 1602.88,1495.901 1598.432,1557.296C1589.553,1679.838 1471.102,1798.509 1292.789,1823.716C1292.789,1823.716 1332.58,1695.831 1303.344,1624.216C1274.108,1552.6 1246.041,1445.324 1379.088,1360.868L1540.162,1384.508ZM1382.136,1093.848L1628.867,1130.061L1563.453,1329.5L1377.176,1302.611C1377.176,1302.611 1375.744,1156.465 1382.136,1093.848ZM1386.551,1024.885C1395.944,898.902 1495.027,570.927 1495.027,570.927C1495.027,570.927 1607.534,235.272 1675.116,251.152C1742.699,267.031 1729.699,543.405 1719.466,694.224C1709.232,845.043 1648.179,1063.284 1648.179,1063.284L1386.551,1024.885ZM1109.654,537.792L1238.332,667.011L863.522,1041.821L1234.944,1413.244L1107.238,1540.691L606.847,1040.3L1109.654,537.792ZM1917.358,537.792L2420.165,1040.3L1919.774,1540.691L1792.068,1413.244L2163.49,1041.821L1788.68,667.011L1917.358,537.792Z" style="fill:none;stroke:rgb(255,101,0);stroke-width:40px;"/>
    <path id="a-copiar-2" serif:id="a copiar 2" d="M3881.031,1380.748C3868.364,1392.579 3855.745,1402.564 3844.697,1410.598C3788.82,1451.225 3730.912,1467.956 3711.823,1466.873C3689.76,1465.623 3645.772,1458.213 3625.432,1425.965C3621.397,1419.567 3615.315,1400.954 3613.34,1380.896C3611.806,1365.308 3612.301,1351.654 3613.34,1338.69C3615.1,1316.736 3617.104,1291.515 3619.593,1276.161C3621.331,1265.44 3624.424,1250.526 3627.409,1237.08C3630.067,1225.107 3633.409,1209.072 3635.225,1204.253C3641.136,1188.568 3642.587,1181.596 3646.168,1163.609C3647.392,1157.459 3644.465,1147.727 3641.478,1146.414C3635.327,1143.711 3627.514,1148.402 3614.903,1163.609C3579.732,1201.856 3548.036,1244.093 3519.547,1285.54C3497.415,1317.739 3471.494,1356.73 3460.145,1377.77C3455.554,1386.281 3450.631,1392.688 3446.076,1401.218C3437.284,1417.682 3432.2,1430.721 3417.938,1437.172C3404.867,1443.085 3390.399,1440.296 3381.984,1437.172C3376.255,1435.046 3364.962,1428.152 3355.409,1416.85C3344.996,1404.531 3339.577,1391.962 3339.777,1382.46C3340.043,1369.829 3340.725,1358.863 3342.518,1352.706C3350.545,1325.145 3362.751,1287.634 3374.168,1254.276C3374.187,1254.225 3389.353,1204.031 3400.743,1177.678C3404.989,1167.853 3414.744,1130.99 3417.938,1099.517C3419.579,1083.351 3418.994,1071.37 3411.685,1066.69C3404.15,1061.865 3390.517,1065.413 3375.731,1077.632C3312.26,1133.404 3279.004,1201.61 3228.789,1265.218C3184.842,1320.885 3134.572,1447.116 3095.915,1474.69C3089.156,1479.511 3079.239,1478.765 3069.341,1476.253C3060.328,1473.966 3049.999,1468.197 3039.639,1454.368C3029.938,1441.417 3025.483,1425.673 3024.996,1409.28C3014.913,1418.211 3004.847,1426.212 2994.682,1433.506C2960.331,1458.154 2930.311,1471.406 2905.579,1475.713C2888.99,1478.602 2875.555,1478.211 2863.372,1475.713C2847.485,1472.456 2832.215,1465.41 2819.602,1455.391C2807.026,1445.402 2785.643,1416.08 2777.395,1370.977C2771.453,1338.483 2774.216,1305.022 2784.835,1273.035L2878.628,982.276C2880.477,969.981 2885.144,960.365 2893.073,955.161C2913.891,941.497 2948.003,964.154 2963.418,978.61C2981.204,995.288 2987.413,1013.1 2988.429,1022.38C2989.612,1033.177 2987.781,1044.016 2983.363,1054.184L2914.582,1218.322C2897.738,1257.285 2881.195,1306.429 2880.567,1344.403C2880.261,1362.933 2883.836,1373.927 2891.51,1380.357C2898.431,1386.155 2913.456,1387.18 2938.406,1381.92C2978.886,1373.386 2998.49,1352.092 3011.501,1341.816C3027.689,1329.032 3052.763,1298.161 3069.871,1268.947C3085.708,1228.079 3100.919,1187.02 3113.111,1144.851C3128.64,1091.138 3133.119,1083.605 3145.938,1029.172C3153.359,1018.714 3161.907,960.363 3163.133,951.012C3164.307,942.06 3188.614,943.111 3214.72,954.138C3234.433,962.464 3245.566,973.622 3250.674,982.276C3263.906,1004.695 3257.84,1030.785 3250.674,1054.184C3239.348,1091.165 3222.881,1135.618 3205.341,1177.678C3220.618,1152.619 3237.295,1128.644 3255.363,1105.77C3278.579,1076.381 3302.351,1055.567 3327.271,1027.609C3331.482,1022.885 3367.259,987.314 3402.306,969.77C3413.338,964.248 3426.47,959.316 3442.949,960.391C3472.681,962.329 3493.465,983.318 3502.352,994.782C3515.041,1011.15 3524.939,1052.332 3516.421,1110.46C3511.677,1142.834 3503.304,1174.685 3491.409,1205.816C3525.098,1169.552 3565.392,1126.865 3588.329,1099.517C3598.483,1087.41 3619.311,1061.597 3653.984,1054.184C3673.086,1050.1 3696.783,1050.945 3716.513,1063.563C3730.966,1072.807 3742.502,1087.274 3747.777,1104.207C3754.621,1126.176 3748.604,1146.331 3746.214,1154.23C3740.491,1173.14 3737.732,1189.993 3732.145,1208.943C3727.894,1223.36 3723.032,1248.782 3718.076,1269.908C3716.32,1277.392 3712.788,1306.214 3713.386,1329.31C3714.113,1357.352 3720.402,1375.607 3727.455,1380.896C3749.336,1397.306 3795.405,1379.053 3825.938,1354.322C3845.576,1338.415 3864.749,1314.798 3880.949,1291.848C3894.458,1230.579 3934.773,1159.054 3963.869,1120.572C4002.301,1069.631 4091.414,1004.019 4126.444,989.262C4179.545,966.545 4214.695,963.792 4253.065,967.377C4277.321,972.053 4288.363,974.936 4309.341,987.698C4328.691,999.471 4345.564,1024.97 4353.111,1037.721C4357.328,1044.847 4363.097,1054.808 4357.8,1061.17C4351.844,1068.323 4332.838,1059.503 4329.663,1058.043C4305.01,1046.709 4283.721,1047.048 4271.823,1045.537C4264.037,1044.549 4257.295,1044.372 4249.501,1045.064C4242.978,1045.644 4235.718,1046.832 4226.49,1048.664C4197.593,1054.399 4184.895,1058.289 4168.651,1065.859C4149.675,1074.702 4128.399,1088.15 4106.122,1106.503C4080.002,1128.022 4056.97,1153.207 4037.341,1181.537C4005.265,1239.367 3980.199,1282.337 3981.065,1334.733C3981.484,1360.083 3990.262,1368.828 4000.602,1374.665C4003.676,1376.4 4026.386,1384.102 4054.536,1362.871C4155.908,1286.415 4183.411,1245.403 4245.249,1137.767C4253.212,1127.074 4260.07,1113.863 4273.387,1109.629C4282.367,1106.775 4294.039,1106.73 4309.341,1114.319C4317.963,1118.595 4335.882,1130.156 4340.605,1147.147C4343.786,1158.591 4338.329,1167.407 4334.352,1178.411C4327.188,1198.236 4315.039,1221.351 4303.088,1240.94C4286.644,1278.303 4283.569,1346.359 4301.525,1365.997C4323.355,1389.873 4335.931,1385.703 4359.364,1381.629C4372.102,1379.031 4397.205,1367.942 4418.766,1355.055C4438.735,1342.93 4466.839,1315.5 4479.731,1305.032C4492.024,1295.172 4503.794,1312.547 4503.179,1328.48C4502.831,1342.002 4475.61,1367.614 4459.41,1380.066C4440.728,1394.922 4404.91,1422.774 4376.559,1436.342C4331.864,1458.924 4287.504,1458.328 4267.134,1455.101C4245.396,1451.404 4186.707,1417.578 4190.536,1337.859C4154.8,1381.033 4070.512,1455.287 3985.678,1466.775C3950.372,1471.557 3922.407,1454.442 3902.773,1429.776C3891.984,1416.237 3885.072,1399.628 3881.031,1380.748ZM2589.809,1220.908C2531.335,1352.207 2474.09,1490.565 2418.532,1633.027C2473.973,1621.697 2528.473,1609.934 2581.993,1597.644C2604.916,1592.38 2651.977,1584.39 2688.291,1577.322C2722.219,1570.719 2829.409,1555.144 2929.027,1580.449C2983.34,1594.245 3023.243,1611.604 3024.383,1633.598C3024.746,1640.601 3021.159,1647.448 3015.004,1653.92C2957.668,1651.367 2900.322,1652.409 2843.05,1657.046C2779.626,1662.181 2715.033,1672.067 2649.211,1686.747C2579.844,1702.218 2504.552,1720.882 2475.694,1736.77C2464.677,1742.836 2429.737,1753.834 2408.475,1761.782C2398.787,1765.404 2375.12,1774.268 2350.636,1764.908C2343.487,1762.175 2327.539,1751.052 2314.682,1733.644C2301.033,1715.162 2295.137,1695.493 2294.361,1686.747C2292.973,1671.119 2296.331,1655.514 2303.74,1641.414L2330.315,1566.38C2381.063,1423.092 2503.194,1126.984 2525.717,1069.276C2589.056,906.988 2643.564,738.884 2689.479,564.897C2691.43,553.518 2694.559,542.551 2698.858,532.069C2705.982,514.699 2715.725,504.086 2721.119,501.828C2727.844,499.014 2742.286,499.012 2760.824,508.966C2773.135,515.576 2782.579,524.804 2788.586,535.37C2794.303,545.425 2796.642,555.843 2797.341,569.587C2798.501,592.405 2795.375,620.806 2791.088,644.621C2791.216,644.355 2791.378,644.056 2791.464,644.081C2792.753,644.451 2773.231,716.345 2764.153,748.802C2751.87,792.718 2738.602,836.371 2724.245,880.127C2683.706,1003.685 2640.14,1107.891 2589.809,1220.908ZM2985.303,737.874C3008.895,731.172 3033.9,751.043 3045.617,765.965C3051.516,773.477 3056.707,783.273 3060.506,796.202C3061.928,801.04 3062.958,805.648 3063.464,809.782C3066.203,832.202 3056.25,849.381 3044.705,870.748C3027.994,901.676 3020.099,920.339 3004.061,922.334C3001.965,922.594 2996.575,921.977 2991.556,920.771C2978.346,917.595 2965.949,911.069 2955.602,902.012C2949.379,896.564 2944.549,891.093 2941.533,886.38C2935.08,876.299 2930.585,844.09 2939.97,803.529C2943.265,789.286 2948.938,769.732 2964.981,751.943C2972.348,743.775 2978.562,739.789 2985.303,737.874Z" style="fill:white;"/>
</svg>
