<svg width="46" height="46" viewBox="0 0 46 46" fill="none" xmlns="http://www.w3.org/2000/svg">
<rect width="46" height="46" rx="23" fill="url(#paint0_linear_51_59)"/>
<g clip-path="url(#clip0_51_59)">
<path fill-rule="evenodd" clip-rule="evenodd" d="M29.6999 16.2613C27.9218 14.4817 25.5579 13.5008 23.0396 13.5C17.8502 13.5 13.6267 17.7228 13.6243 22.9145C13.6235 24.5738 14.0573 26.1936 14.8815 27.6217L13.5451 32.5L18.5358 31.1906C19.9109 31.9411 21.4594 32.3361 23.0348 32.3369H23.0388C28.2274 32.3369 32.4517 28.1134 32.4541 22.9216C32.4557 20.4065 31.4772 18.0402 29.6999 16.2613ZM23.0396 30.7465H23.0364C21.632 30.7465 20.2553 30.3688 19.0536 29.6555L18.7678 29.4861L15.8061 30.2628L16.597 27.3747L16.411 27.0787C15.6272 25.8326 15.214 24.3925 15.2148 22.9145C15.2163 18.5999 18.7274 15.0897 23.0436 15.0897C25.1336 15.0897 27.0985 15.9051 28.5757 17.3839C30.053 18.8635 30.866 20.8293 30.8652 22.92C30.8628 27.2362 27.3526 30.7465 23.0396 30.7465ZM27.332 24.8857C27.0969 24.7678 25.9403 24.1986 25.7241 24.1202C25.5088 24.0418 25.3521 24.0022 25.1945 24.2374C25.037 24.4725 24.5873 25.0029 24.4496 25.1605C24.3126 25.3172 24.1748 25.337 23.9397 25.219C23.7046 25.1011 22.9462 24.8533 22.0476 24.0513C21.3486 23.4275 20.876 22.6572 20.739 22.4213C20.6021 22.1854 20.7248 22.0587 20.8419 21.9415C20.948 21.8363 21.0771 21.6668 21.195 21.5291C21.3138 21.3929 21.3526 21.2948 21.4317 21.1372C21.5101 20.9805 21.4713 20.8427 21.4119 20.7248C21.3526 20.6076 20.8823 19.4494 20.6868 18.9783C20.496 18.5192 20.302 18.5817 20.1571 18.5746C20.0202 18.5675 19.8634 18.5667 19.7059 18.5667C19.5491 18.5667 19.2942 18.6252 19.0789 18.8612C18.8636 19.0971 18.2556 19.6663 18.2556 20.8237C18.2556 21.9819 19.0987 23.1005 19.2158 23.2573C19.333 23.414 20.8744 25.7906 23.2343 26.8095C23.7956 27.0518 24.2342 27.1966 24.5754 27.3051C25.1391 27.484 25.6521 27.4587 26.0574 27.3985C26.5095 27.3312 27.4492 26.8293 27.6455 26.2799C27.8418 25.7305 27.8418 25.2586 27.7825 25.1613C27.7239 25.0623 27.5671 25.0037 27.332 24.8857Z" fill="black" fill-opacity="0.8"/>
</g>
<defs>
<linearGradient id="paint0_linear_51_59" x1="49" y1="15.5" x2="-5" y2="26" gradientUnits="userSpaceOnUse">
<stop stop-color="#FF8700"/>
<stop offset="1" stop-color="#F85300"/>
</linearGradient>
<clipPath id="clip0_51_59">
<rect width="19" height="19" fill="white" transform="translate(13.5 13.5)"/>
</clipPath>
</defs>
</svg>
