<?xml version="1.0" encoding="UTF-8" standalone="no"?>
<!DOCTYPE svg PUBLIC "-//W3C//DTD SVG 1.1//EN" "http://www.w3.org/Graphics/SVG/1.1/DTD/svg11.dtd">
<svg width="100%" height="100%" viewBox="0 0 48 48" version="1.1" xmlns="http://www.w3.org/2000/svg" xmlns:xlink="http://www.w3.org/1999/xlink" xml:space="preserve" xmlns:serif="http://www.serif.com/" style="fill-rule:evenodd;clip-rule:evenodd;stroke-linecap:round;stroke-linejoin:round;stroke-miterlimit:10;">
    <path d="M48,10.852C48,4.863 43.137,0 37.148,0L10.852,0C4.863,0 0,4.863 0,10.852L0,37.148C0,43.137 4.863,48 10.852,48L37.148,48C43.137,48 48,43.137 48,37.148L48,10.852Z" style="fill:rgb(9,9,9);"/>
    <g id="Forma-4-copiar-3" serif:id="Forma 4 copiar 3" transform="matrix(0.025276,0,0,0.025276,-2.725442,-1.886812)">
        <path d="M1078.162,1371.508C1117.618,1422.926 1140.88,1482.901 1136.431,1544.296C1127.553,1666.838 1009.102,1785.509 830.789,1810.716C830.789,1810.716 870.58,1682.831 841.344,1611.216C812.108,1539.6 784.041,1432.324 917.088,1347.868L1078.162,1371.508ZM920.136,1080.848L1166.867,1117.061L1101.453,1316.5L915.176,1289.611C915.176,1289.611 913.744,1143.465 920.136,1080.848ZM924.551,1011.885C933.944,885.902 1033.027,557.927 1033.027,557.927C1033.027,557.927 1145.533,222.272 1213.116,238.152C1280.698,254.031 1267.699,530.405 1257.466,681.224C1247.233,832.043 1186.179,1050.284 1186.179,1050.284L924.551,1011.885ZM647.653,524.792L776.332,654.011L401.522,1028.821L772.944,1400.244L645.238,1527.691L144.847,1027.3L647.653,524.792ZM1455.358,524.792L1958.165,1027.3L1457.774,1527.691L1330.068,1400.244L1701.49,1028.821L1326.68,654.011L1455.358,524.792Z" style="fill:none;stroke:url(#_Linear1);stroke-width:49.45px;"/>
    </g>
    <defs>
        <linearGradient id="_Linear1" x1="0" y1="0" x2="1" y2="0" gradientUnits="userSpaceOnUse" gradientTransform="matrix(1853.317873,-1482.654298,1482.654298,1853.317873,124.846978,1765.492454)"><stop offset="0" style="stop-color:rgb(255,82,0);stop-opacity:1"/><stop offset="1" style="stop-color:rgb(255,136,0);stop-opacity:1"/></linearGradient>
    </defs>
</svg>
